<?xml version="1.0" encoding="utf-8"?>
<!-- Svg Vector Icons : http://www.onlinewebfonts.com/icon -->
<!DOCTYPE svg PUBLIC "-//W3C//DTD SVG 1.1//EN" "http://www.w3.org/Graphics/SVG/1.1/DTD/svg11.dtd">
<svg version="1.1" xmlns="http://www.w3.org/2000/svg" xmlns:xlink="http://www.w3.org/1999/xlink" x="0px" y="0px" viewBox="0 0 1000 1000" enable-background="new 0 0 1000 1000" xml:space="preserve">
<metadata> Svg Vector Icons : http://www.onlinewebfonts.com/icon </metadata>
<g><path d="M224.4,255v61.3h-61.3v61.3h61.3v61.3h-61.3V500h61.3v61.3h61.3V500h61.3v-61.3h-61.3v-61.3h61.3v-61.3h-61.3V255H224.4z M469.4,255v61.3h-61.3v61.3h61.3v61.3h-61.3V500h61.3v61.3h61.3V500h61.3v-61.3h-61.3v-61.3h61.3v-61.3h-61.3V255H469.4z M714.4,255v61.3h-61.3v61.3h61.3v61.3h-61.3V500h61.3v61.3h61.3V500h61.3v-61.3h-61.3v-61.3h61.3v-61.3h-61.3V255H714.4z M193.8,775.6V990l214.4-214.4h398.1c101.4,0,183.8-82.4,183.8-183.8V193.8C990,92.4,907.6,10,806.3,10H193.8C92.4,10,10,92.4,10,193.8v398.1C10,693.3,92.4,775.6,193.8,775.6z M255,714.4h-61.3c-67.7,0-122.5-54.8-122.5-122.5V193.8c0-67.7,54.8-122.5,122.5-122.5h612.5c67.7,0,122.5,54.8,122.5,122.5v398.1c0,67.7-54.8,122.5-122.5,122.5H377.5L255,836.9V714.4z"/></g>
</svg>
